<?xml version="1.0" encoding="utf-8"?>
<!-- Generator: Adobe Illustrator 16.0.4, SVG Export Plug-In . SVG Version: 6.00 Build 0)  -->
<!DOCTYPE svg PUBLIC "-//W3C//DTD SVG 1.1//EN" "http://www.w3.org/Graphics/SVG/1.1/DTD/svg11.dtd">
<svg version="1.1" id="Layer_1" xmlns="http://www.w3.org/2000/svg" xmlns:xlink="http://www.w3.org/1999/xlink" x="0px" y="0px"
	 width="165px" height="165px" viewBox="0 0 165 165" enable-background="new 0 0 165 165" xml:space="preserve">
<g>
	<defs>
		<rect id="SVGID_1_" x="0.06" y="0.184" width="164.756" height="164.816"/>
	</defs>
	<clipPath id="SVGID_2_">
		<use xlink:href="#SVGID_1_"  overflow="visible"/>
	</clipPath>
	<path clip-path="url(#SVGID_2_)" fill="gold" d="M103.009,92.893H82.408V72.291c0-5.694-4.608-10.301-10.301-10.301
		c-5.694,0-10.301,4.607-10.301,10.301v30.902c0,5.694,4.607,10.302,10.301,10.302h30.902c5.695,0,10.302-4.607,10.302-10.302
		C113.311,97.5,108.704,92.893,103.009,92.893"/>
	<path clip-path="url(#SVGID_2_)" fill="red" d="M52.356,8.875c-5.532-5.378-13.11-8.691-21.453-8.691
		C13.802,0.184,0,13.986,0,31.087c0,6.357,1.912,12.232,5.15,17.101c1.583,2.361,4.299,1.992,5.822-0.416
		c9.443-14.854,23.391-26.564,39.922-33.236C53.53,13.483,54.395,10.861,52.356,8.875"/>
</g>
<path fill="blue" d="M112.465,8.875c-2.051,1.986-1.179,4.608,1.462,5.674c16.525,6.659,30.468,18.369,39.904,33.217
	c1.528,2.407,4.251,2.783,5.834,0.422c3.239-4.869,5.151-10.744,5.151-17.101c0-17.101-13.803-30.903-30.903-30.903
	C125.563,0.184,117.992,3.497,112.465,8.875"/>
<path fill="green" d="M92.709,10.485h5.15c2.844,0,5.149-2.307,5.149-5.151c0-2.843-2.306-5.15-5.149-5.15H66.956
	c-2.843,0-5.15,2.307-5.15,5.15c0,2.844,2.307,5.151,5.15,5.151h5.151v11.126c-34.927,5.01-61.806,34.967-61.806,71.282
	c0,16.257,5.452,31.211,14.526,43.276c-0.202,0.194-0.503,0.201-0.704,0.402l-10.804,10.817c-4.024,4.01-4.024,10.609,0,14.62
	c2.052,1.965,4.627,2.991,7.303,2.991c2.676,0,5.251-1.026,7.323-2.991l10.804-10.811c0.202-0.201,0.221-0.503,0.402-0.705
	C51.21,159.554,66.152,165,82.408,165c16.538,0,31.733-5.634,43.898-14.989c-0.1,0.463,0,0.771,0.216,0.986l10.301,10.804
	c1.959,2.173,4.734,3.199,7.41,3.199c2.575,0,5.15-0.926,7.115-2.877c4.11-3.924,4.227-10.416,0.31-14.526l-10.301-10.824
	c-0.31-0.402-0.726-0.517-1.142-0.825c-0.167,0.242-0.388,0.443-0.569,0.685c9.295-12.139,14.867-27.269,14.867-43.739
	c0-36.314-26.879-66.271-61.805-71.282V10.485 M82.408,144.397c-28.395,0-51.505-23.11-51.505-51.505s23.11-51.504,51.505-51.504
	c28.394,0,51.505,23.11,51.505,51.504S110.802,144.397,82.408,144.397z"/>
</svg>
