<?xml version="1.0" encoding="utf-8"?>
<!-- Generator: Adobe Illustrator 16.0.4, SVG Export Plug-In . SVG Version: 6.00 Build 0)  -->
<!DOCTYPE svg PUBLIC "-//W3C//DTD SVG 1.1//EN" "http://www.w3.org/Graphics/SVG/1.1/DTD/svg11.dtd">
<svg version="1.1" id="Layer_1" xmlns="http://www.w3.org/2000/svg" xmlns:xlink="http://www.w3.org/1999/xlink" x="0px" y="0px"
	 width="192px" height="157px" viewBox="0 0 192 157" enable-background="new 0 0 192 157" xml:space="preserve">
<g>
	<defs>
		<rect id="SVGID_1_" y="0.953" width="191.938" height="155.987"/>
	</defs>
	<clipPath id="SVGID_2_">
		<use xlink:href="#SVGID_1_"  overflow="visible"/>
	</clipPath>
	<path clip-path="url(#SVGID_2_)" fill="#2F3031" d="M191.938,19.422c-7.079,3.14-14.649,5.25-22.618,6.211
		c8.133-4.875,14.368-12.586,17.32-21.797c-7.617,4.523-16.055,7.805-25.031,9.562c-7.171-7.664-17.414-12.445-28.734-12.445
		c-21.773,0-39.406,17.648-39.406,39.398c0,3.094,0.351,6.094,1.023,8.977c-32.734-1.641-61.773-17.32-81.203-41.156
		c-3.375,5.812-5.32,12.586-5.32,19.804c0,13.665,9.094,25.711,19.664,32.79C21.18,60.555,11.93,58.773,11.93,55.82
		c0,0.188,0,0.352,0,0.516c0,19.078,11.437,34.992,29.453,38.625c-3.305,0.89-7.852,1.383-11.446,1.383
		c-2.546,0-5.539-0.258-7.953-0.727c5.016,15.656,19.305,27.047,36.532,27.375c-13.477,10.547-30.61,16.852-49.047,16.852
		c-3.188,0-6.391-0.188-9.469-0.539C17.438,150.461,38.102,157,60.344,157c72.46,0,112.062-60.024,112.062-112.078
		c0-1.711-0.047-3.422-0.133-5.11C179.984,34.258,186.664,27.32,191.938,19.422"/>
</g>
</svg>
